<?xml version="1.0" encoding="UTF-8" standalone="no"?>
<!-- Created with Inkscape (http://www.inkscape.org/) -->

<svg
   width="33.744473mm"
   height="39.075806mm"
   viewBox="0 0 33.744473 39.075806"
   version="1.1"
   id="svg5499"
   inkscape:version="1.2.2 (732a01da63, 2022-12-09)"
   sodipodi:docname="gcode-looper-logo.svg"
   xmlns:inkscape="http://www.inkscape.org/namespaces/inkscape"
   xmlns:sodipodi="http://sodipodi.sourceforge.net/DTD/sodipodi-0.dtd"
   xmlns="http://www.w3.org/2000/svg"
   xmlns:svg="http://www.w3.org/2000/svg">
  <sodipodi:namedview
     id="namedview5501"
     pagecolor="#ffffff"
     bordercolor="#000000"
     borderopacity="0.25"
     inkscape:showpageshadow="2"
     inkscape:pageopacity="0.0"
     inkscape:pagecheckerboard="0"
     inkscape:deskcolor="#d1d1d1"
     inkscape:document-units="mm"
     showgrid="false"
     inkscape:zoom="14.638496"
     inkscape:cx="95.84318"
     inkscape:cy="123.57827"
     inkscape:window-width="3840"
     inkscape:window-height="2054"
     inkscape:window-x="-11"
     inkscape:window-y="-11"
     inkscape:window-maximized="1"
     inkscape:current-layer="layer1"
     inkscape:lockguides="false" />
  <defs
     id="defs5496" />
  <g
     inkscape:label="Layer 1"
     inkscape:groupmode="layer"
     id="layer1"
     transform="translate(-2.792811,-2.1514817)">
    <path
       sodipodi:type="star"
       style="opacity:0.25;fill:#a6cba0;fill-opacity:1;stroke:none;stroke-width:0.49091;stroke-dasharray:0.49091, 0.49091;stroke-dashoffset:0;stroke-opacity:1"
       id="path355-2-0-6"
       inkscape:flatsided="false"
       sodipodi:sides="6"
       sodipodi:cx="71.00898"
       sodipodi:cy="63.95409"
       sodipodi:r1="19.080221"
       sodipodi:r2="16.565811"
       sodipodi:arg1="0.52359878"
       sodipodi:arg2="1.0532965"
       inkscape:rounded="0"
       inkscape:randomized="0"
       d="m 87.532936,73.494201 -8.328702,4.856552 -8.195254,4.683558 -8.370249,-4.784591 -8.153707,-4.755519 -0.04155,-9.641144 0.04155,-9.439078 8.328702,-4.856552 8.195254,-4.683558 8.370249,4.784591 8.153707,4.75552 0.04155,9.641144 z"
       transform="matrix(-1.0185164,0,0,-1.0185164,91.988858,86.93206)" />
    <path
       sodipodi:type="star"
       style="opacity:0.75;fill:#a6cba0;stroke-width:0.264583"
       id="path355-5-6-94-4"
       inkscape:flatsided="false"
       sodipodi:sides="6"
       sodipodi:cx="71.00898"
       sodipodi:cy="63.95409"
       sodipodi:r1="19.080221"
       sodipodi:r2="16.565811"
       sodipodi:arg1="0.52359878"
       sodipodi:arg2="1.0532965"
       inkscape:rounded="0"
       inkscape:randomized="0"
       d="m 87.532936,73.494201 -8.328702,4.856552 -8.195254,4.683558 -8.370249,-4.784591 -8.153707,-4.755519 -0.04155,-9.641144 0.04155,-9.439078 8.328702,-4.856552 8.195254,-4.683558 8.370249,4.784591 8.153707,4.75552 0.04155,9.641144 z"
       transform="matrix(-0.66053177,0,0,-0.66053177,66.568728,64.03747)" />
    <path
       sodipodi:type="star"
       style="fill:#a6cba0;stroke-width:0.264583"
       id="path355-5-6-9-8-0"
       inkscape:flatsided="false"
       sodipodi:sides="6"
       sodipodi:cx="71.00898"
       sodipodi:cy="63.95409"
       sodipodi:r1="19.080221"
       sodipodi:r2="16.565811"
       sodipodi:arg1="0.52359878"
       sodipodi:arg2="1.0532965"
       inkscape:rounded="0"
       inkscape:randomized="0"
       d="m 87.532936,73.494201 -8.328702,4.856552 -8.195254,4.683558 -8.370249,-4.784591 -8.153707,-4.755519 -0.04155,-9.641144 0.04155,-9.439078 8.328702,-4.856552 8.195254,-4.683558 8.370249,4.784591 8.153707,4.75552 0.04155,9.641144 z"
       transform="matrix(-0.35066163,0,0,-0.35066163,44.565168,44.22001)" />
    <rect
       style="opacity:0.26;fill:#ffffff;fill-opacity:1;stroke-width:0.285119"
       id="rect456-9-1-3"
       width="19.500042"
       height="19.500042"
       x="-33.019722"
       y="-10.240984"
       transform="matrix(-0.86313752,-0.50496892,0.86313752,-0.50496892,0,0)" />
  </g>
</svg>
